<mxfile host="app.diagrams.net" agent="Mozilla/5.0 (Windows NT 10.0; Win64; x64) AppleWebKit/537.36 (KHTML, like Gecko) Chrome/141.0.0.0 Safari/537.36 Edg/141.0.0.0" version="28.2.5">
  <diagram id="6a731a19-8d31-9384-78a2-239565b7b9f0" name="Page-1">
    <mxGraphModel dx="2672" dy="1518" grid="1" gridSize="10" guides="1" tooltips="1" connect="1" arrows="1" fold="1" page="1" pageScale="1" pageWidth="1169" pageHeight="827" background="none" math="0" shadow="0">
      <root>
        <mxCell id="0" />
        <mxCell id="1" parent="0" />
        <mxCell id="ECqiEvyCKfUZ2uqSirjC-56" value="" style="edgeStyle=orthogonalEdgeStyle;rounded=0;orthogonalLoop=1;jettySize=auto;html=1;" edge="1" parent="1" source="2" target="ECqiEvyCKfUZ2uqSirjC-55">
          <mxGeometry relative="1" as="geometry" />
        </mxCell>
        <mxCell id="2" value="&lt;font style=&quot;font-size: 18px;&quot;&gt;开始start&lt;/font&gt;" style="shape=mxgraph.flowchart.terminator;strokeWidth=2;gradientColor=none;gradientDirection=north;fontStyle=0;html=1;fillColor=#FFCDD2;" parent="1" vertex="1">
          <mxGeometry x="240" y="40" width="160" height="50" as="geometry" />
        </mxCell>
        <mxCell id="ECqiEvyCKfUZ2uqSirjC-58" value="" style="edgeStyle=orthogonalEdgeStyle;rounded=0;orthogonalLoop=1;jettySize=auto;html=1;" edge="1" parent="1" source="ECqiEvyCKfUZ2uqSirjC-55" target="ECqiEvyCKfUZ2uqSirjC-57">
          <mxGeometry relative="1" as="geometry" />
        </mxCell>
        <mxCell id="ECqiEvyCKfUZ2uqSirjC-55" value="&lt;font style=&quot;font-size: 18px;&quot;&gt;定义关键字数组、单分界符、双分节符&lt;/font&gt;" style="fillColor=#FFCDD2;shape=parallelogram;html=1;strokeWidth=2;perimeter=parallelogramPerimeter;whiteSpace=wrap;rounded=1;arcSize=12;size=0.23;" vertex="1" parent="1">
          <mxGeometry x="100" y="130" width="440" height="60" as="geometry" />
        </mxCell>
        <mxCell id="ECqiEvyCKfUZ2uqSirjC-62" value="" style="edgeStyle=orthogonalEdgeStyle;rounded=0;orthogonalLoop=1;jettySize=auto;html=1;" edge="1" parent="1" source="ECqiEvyCKfUZ2uqSirjC-57" target="ECqiEvyCKfUZ2uqSirjC-61">
          <mxGeometry relative="1" as="geometry" />
        </mxCell>
        <mxCell id="ECqiEvyCKfUZ2uqSirjC-57" value="&lt;font style=&quot;font-size: 18px;&quot;&gt;输入源程序文件路径和输出文件路径&lt;/font&gt;" style="fillColor=#FFCDD2;whiteSpace=wrap;html=1;strokeWidth=2;rounded=1;arcSize=12;" vertex="1" parent="1">
          <mxGeometry x="195" y="230" width="250" height="60" as="geometry" />
        </mxCell>
        <mxCell id="ECqiEvyCKfUZ2uqSirjC-61" value="&lt;font style=&quot;font-size: 18px;&quot;&gt;打开源文件和输出文件&lt;/font&gt;" style="fillColor=#FFCDD2;whiteSpace=wrap;html=1;strokeWidth=2;rounded=1;arcSize=12;" vertex="1" parent="1">
          <mxGeometry x="195" y="330" width="250" height="60" as="geometry" />
        </mxCell>
        <mxCell id="ECqiEvyCKfUZ2uqSirjC-68" value="" style="edgeStyle=orthogonalEdgeStyle;rounded=0;orthogonalLoop=1;jettySize=auto;html=1;" edge="1" parent="1" source="ECqiEvyCKfUZ2uqSirjC-63" target="ECqiEvyCKfUZ2uqSirjC-67">
          <mxGeometry relative="1" as="geometry">
            <Array as="points">
              <mxPoint x="670" y="360" />
              <mxPoint x="670" y="260" />
            </Array>
          </mxGeometry>
        </mxCell>
        <mxCell id="ECqiEvyCKfUZ2uqSirjC-70" value="" style="edgeStyle=orthogonalEdgeStyle;rounded=0;orthogonalLoop=1;jettySize=auto;html=1;" edge="1" parent="1" source="ECqiEvyCKfUZ2uqSirjC-63" target="ECqiEvyCKfUZ2uqSirjC-69">
          <mxGeometry relative="1" as="geometry" />
        </mxCell>
        <mxCell id="ECqiEvyCKfUZ2uqSirjC-63" value="&lt;font style=&quot;font-size: 18px;&quot;&gt;源文件打开失败？&lt;/font&gt;" style="fillColor=#C8E6C9;shape=hexagon;perimeter=hexagonPerimeter2;whiteSpace=wrap;html=1;fixedSize=1;strokeWidth=2;rounded=1;arcSize=12;" vertex="1" parent="1">
          <mxGeometry x="480" y="330" width="170" height="60" as="geometry" />
        </mxCell>
        <mxCell id="ECqiEvyCKfUZ2uqSirjC-76" value="" style="edgeStyle=orthogonalEdgeStyle;rounded=0;orthogonalLoop=1;jettySize=auto;html=1;" edge="1" parent="1" source="ECqiEvyCKfUZ2uqSirjC-65" target="ECqiEvyCKfUZ2uqSirjC-75">
          <mxGeometry relative="1" as="geometry" />
        </mxCell>
        <mxCell id="ECqiEvyCKfUZ2uqSirjC-81" value="" style="edgeStyle=orthogonalEdgeStyle;rounded=0;orthogonalLoop=1;jettySize=auto;html=1;" edge="1" parent="1" source="ECqiEvyCKfUZ2uqSirjC-65" target="ECqiEvyCKfUZ2uqSirjC-77">
          <mxGeometry relative="1" as="geometry" />
        </mxCell>
        <mxCell id="ECqiEvyCKfUZ2uqSirjC-65" value="&lt;font style=&quot;font-size: 18px;&quot;&gt;输出文件打开失败？&lt;/font&gt;" style="fillColor=#C8E6C9;shape=hexagon;perimeter=hexagonPerimeter2;whiteSpace=wrap;html=1;fixedSize=1;strokeWidth=2;rounded=1;arcSize=12;" vertex="1" parent="1">
          <mxGeometry x="840" y="330" width="170" height="60" as="geometry" />
        </mxCell>
        <mxCell id="ECqiEvyCKfUZ2uqSirjC-74" value="" style="edgeStyle=orthogonalEdgeStyle;rounded=0;orthogonalLoop=1;jettySize=auto;html=1;" edge="1" parent="1" source="ECqiEvyCKfUZ2uqSirjC-67" target="ECqiEvyCKfUZ2uqSirjC-73">
          <mxGeometry relative="1" as="geometry" />
        </mxCell>
        <mxCell id="ECqiEvyCKfUZ2uqSirjC-67" value="&lt;font style=&quot;font-size: 18px;&quot;&gt;是&lt;/font&gt;" style="ellipse;whiteSpace=wrap;html=1;strokeWidth=2;rounded=1;arcSize=12;fillColor=#FFE0B2;" vertex="1" parent="1">
          <mxGeometry x="720" y="230" width="60" height="60" as="geometry" />
        </mxCell>
        <mxCell id="ECqiEvyCKfUZ2uqSirjC-72" value="" style="edgeStyle=orthogonalEdgeStyle;rounded=0;orthogonalLoop=1;jettySize=auto;html=1;" edge="1" parent="1" source="ECqiEvyCKfUZ2uqSirjC-69" target="ECqiEvyCKfUZ2uqSirjC-65">
          <mxGeometry relative="1" as="geometry">
            <Array as="points">
              <mxPoint x="860" y="360" />
              <mxPoint x="860" y="360" />
            </Array>
          </mxGeometry>
        </mxCell>
        <mxCell id="ECqiEvyCKfUZ2uqSirjC-69" value="&lt;font style=&quot;font-size: 18px;&quot;&gt;否&lt;/font&gt;" style="ellipse;whiteSpace=wrap;html=1;strokeWidth=2;rounded=1;arcSize=12;fillColor=#FFE0B2;" vertex="1" parent="1">
          <mxGeometry x="720" y="330" width="60" height="60" as="geometry" />
        </mxCell>
        <mxCell id="ECqiEvyCKfUZ2uqSirjC-73" value="&lt;font style=&quot;font-size: 18px;&quot;&gt;输出错误信息&lt;/font&gt;&lt;div&gt;&lt;font size=&quot;3&quot;&gt;返回1&lt;/font&gt;&lt;/div&gt;" style="whiteSpace=wrap;html=1;strokeWidth=2;rounded=1;arcSize=12;" vertex="1" parent="1">
          <mxGeometry x="810" y="230" width="120" height="60" as="geometry" />
        </mxCell>
        <mxCell id="ECqiEvyCKfUZ2uqSirjC-80" value="" style="edgeStyle=orthogonalEdgeStyle;rounded=0;orthogonalLoop=1;jettySize=auto;html=1;" edge="1" parent="1" source="ECqiEvyCKfUZ2uqSirjC-75" target="ECqiEvyCKfUZ2uqSirjC-79">
          <mxGeometry relative="1" as="geometry" />
        </mxCell>
        <mxCell id="ECqiEvyCKfUZ2uqSirjC-75" value="&lt;font style=&quot;font-size: 18px;&quot;&gt;是&lt;/font&gt;" style="fillColor=#FFE0B2;ellipse;whiteSpace=wrap;html=1;strokeWidth=2;rounded=1;arcSize=12;" vertex="1" parent="1">
          <mxGeometry x="1020" y="230" width="60" height="60" as="geometry" />
        </mxCell>
        <mxCell id="ECqiEvyCKfUZ2uqSirjC-85" value="" style="edgeStyle=orthogonalEdgeStyle;rounded=0;orthogonalLoop=1;jettySize=auto;html=1;" edge="1" parent="1" source="ECqiEvyCKfUZ2uqSirjC-77" target="ECqiEvyCKfUZ2uqSirjC-84">
          <mxGeometry relative="1" as="geometry" />
        </mxCell>
        <mxCell id="ECqiEvyCKfUZ2uqSirjC-77" value="&lt;font style=&quot;font-size: 18px;&quot;&gt;否&lt;/font&gt;" style="fillColor=#FFE0B2;ellipse;whiteSpace=wrap;html=1;strokeWidth=2;rounded=1;arcSize=12;" vertex="1" parent="1">
          <mxGeometry x="1020" y="450" width="60" height="60" as="geometry" />
        </mxCell>
        <mxCell id="ECqiEvyCKfUZ2uqSirjC-79" value="&lt;font style=&quot;font-size: 18px;&quot;&gt;输出错误信息&lt;/font&gt;&lt;div&gt;&lt;font size=&quot;3&quot;&gt;返回2&lt;/font&gt;&lt;/div&gt;" style="whiteSpace=wrap;html=1;strokeWidth=2;rounded=1;arcSize=12;" vertex="1" parent="1">
          <mxGeometry x="1110" y="230" width="120" height="60" as="geometry" />
        </mxCell>
        <mxCell id="ECqiEvyCKfUZ2uqSirjC-89" value="" style="edgeStyle=orthogonalEdgeStyle;rounded=0;orthogonalLoop=1;jettySize=auto;html=1;" edge="1" parent="1" source="ECqiEvyCKfUZ2uqSirjC-84" target="ECqiEvyCKfUZ2uqSirjC-88">
          <mxGeometry relative="1" as="geometry" />
        </mxCell>
        <mxCell id="ECqiEvyCKfUZ2uqSirjC-84" value="&lt;font style=&quot;font-size: 18px;&quot;&gt;从源文件读取单个字符ch&lt;/font&gt;" style="fillColor=#FFCDD2;whiteSpace=wrap;html=1;strokeWidth=2;rounded=1;arcSize=12;" vertex="1" parent="1">
          <mxGeometry x="195" y="450" width="250" height="60" as="geometry" />
        </mxCell>
        <mxCell id="ECqiEvyCKfUZ2uqSirjC-157" value="" style="edgeStyle=orthogonalEdgeStyle;rounded=0;orthogonalLoop=1;jettySize=auto;html=1;" edge="1" parent="1" source="ECqiEvyCKfUZ2uqSirjC-88" target="ECqiEvyCKfUZ2uqSirjC-156">
          <mxGeometry relative="1" as="geometry" />
        </mxCell>
        <mxCell id="ECqiEvyCKfUZ2uqSirjC-88" value="&lt;font style=&quot;font-size: 18px;&quot;&gt;进入循环（ch != EOF)&lt;/font&gt;" style="fillColor=#FFCDD2;shape=mxgraph.flowchart.terminator;strokeWidth=2;gradientColor=none;gradientDirection=north;fontStyle=0;html=1;" vertex="1" parent="1">
          <mxGeometry x="200" y="560" width="240" height="50" as="geometry" />
        </mxCell>
        <mxCell id="ECqiEvyCKfUZ2uqSirjC-98" value="" style="edgeStyle=orthogonalEdgeStyle;rounded=0;orthogonalLoop=1;jettySize=auto;html=1;" edge="1" parent="1" source="ECqiEvyCKfUZ2uqSirjC-92" target="ECqiEvyCKfUZ2uqSirjC-97">
          <mxGeometry relative="1" as="geometry" />
        </mxCell>
        <mxCell id="ECqiEvyCKfUZ2uqSirjC-103" value="" style="edgeStyle=orthogonalEdgeStyle;rounded=0;orthogonalLoop=1;jettySize=auto;html=1;" edge="1" parent="1" source="ECqiEvyCKfUZ2uqSirjC-92" target="ECqiEvyCKfUZ2uqSirjC-102">
          <mxGeometry relative="1" as="geometry" />
        </mxCell>
        <mxCell id="ECqiEvyCKfUZ2uqSirjC-92" value="&lt;font style=&quot;font-size: 18px;&quot;&gt;ch为EOF？&lt;/font&gt;" style="fillColor=#C8E6C9;shape=hexagon;perimeter=hexagonPerimeter2;whiteSpace=wrap;html=1;fixedSize=1;strokeWidth=2;rounded=1;arcSize=12;" vertex="1" parent="1">
          <mxGeometry x="520" y="660" width="170" height="60" as="geometry" />
        </mxCell>
        <mxCell id="ECqiEvyCKfUZ2uqSirjC-96" value="" style="edgeStyle=orthogonalEdgeStyle;rounded=0;orthogonalLoop=1;jettySize=auto;html=1;" edge="1" parent="1" source="ECqiEvyCKfUZ2uqSirjC-94" target="ECqiEvyCKfUZ2uqSirjC-92">
          <mxGeometry relative="1" as="geometry" />
        </mxCell>
        <mxCell id="ECqiEvyCKfUZ2uqSirjC-94" value="&lt;font style=&quot;font-size: 18px;&quot;&gt;跳过空白字符&lt;/font&gt;&lt;div&gt;&lt;font size=&quot;3&quot;&gt;空格 换行 制表&lt;/font&gt;&lt;/div&gt;" style="whiteSpace=wrap;html=1;strokeWidth=2;rounded=1;arcSize=12;" vertex="1" parent="1">
          <mxGeometry x="480" y="555" width="250" height="60" as="geometry" />
        </mxCell>
        <mxCell id="ECqiEvyCKfUZ2uqSirjC-101" value="" style="edgeStyle=orthogonalEdgeStyle;rounded=0;orthogonalLoop=1;jettySize=auto;html=1;" edge="1" parent="1" source="ECqiEvyCKfUZ2uqSirjC-97" target="ECqiEvyCKfUZ2uqSirjC-99">
          <mxGeometry relative="1" as="geometry" />
        </mxCell>
        <mxCell id="ECqiEvyCKfUZ2uqSirjC-97" value="&lt;font style=&quot;font-size: 18px;&quot;&gt;是&lt;/font&gt;" style="fillColor=#FFE0B2;ellipse;whiteSpace=wrap;html=1;strokeWidth=2;rounded=1;arcSize=12;" vertex="1" parent="1">
          <mxGeometry x="730" y="660" width="60" height="60" as="geometry" />
        </mxCell>
        <mxCell id="ECqiEvyCKfUZ2uqSirjC-99" value="&lt;font style=&quot;font-size: 18px;&quot;&gt;退出循环&lt;/font&gt;" style="whiteSpace=wrap;html=1;strokeWidth=2;rounded=1;arcSize=12;" vertex="1" parent="1">
          <mxGeometry x="840" y="660" width="120" height="60" as="geometry" />
        </mxCell>
        <mxCell id="ECqiEvyCKfUZ2uqSirjC-105" value="" style="edgeStyle=orthogonalEdgeStyle;rounded=0;orthogonalLoop=1;jettySize=auto;html=1;" edge="1" parent="1" source="ECqiEvyCKfUZ2uqSirjC-102" target="ECqiEvyCKfUZ2uqSirjC-104">
          <mxGeometry relative="1" as="geometry" />
        </mxCell>
        <mxCell id="ECqiEvyCKfUZ2uqSirjC-102" value="&lt;font style=&quot;font-size: 18px;&quot;&gt;否&lt;/font&gt;" style="fillColor=#FFE0B2;ellipse;whiteSpace=wrap;html=1;strokeWidth=2;rounded=1;arcSize=12;" vertex="1" parent="1">
          <mxGeometry x="575" y="750" width="60" height="60" as="geometry" />
        </mxCell>
        <mxCell id="ECqiEvyCKfUZ2uqSirjC-111" value="" style="edgeStyle=orthogonalEdgeStyle;rounded=0;orthogonalLoop=1;jettySize=auto;html=1;" edge="1" parent="1" source="ECqiEvyCKfUZ2uqSirjC-104" target="ECqiEvyCKfUZ2uqSirjC-108">
          <mxGeometry relative="1" as="geometry">
            <Array as="points">
              <mxPoint x="730" y="873" />
              <mxPoint x="730" y="810" />
            </Array>
          </mxGeometry>
        </mxCell>
        <mxCell id="ECqiEvyCKfUZ2uqSirjC-123" style="edgeStyle=orthogonalEdgeStyle;rounded=0;orthogonalLoop=1;jettySize=auto;html=1;exitX=1;exitY=0.5;exitDx=0;exitDy=0;entryX=0;entryY=0.5;entryDx=0;entryDy=0;" edge="1" parent="1" source="ECqiEvyCKfUZ2uqSirjC-104" target="ECqiEvyCKfUZ2uqSirjC-121">
          <mxGeometry relative="1" as="geometry" />
        </mxCell>
        <mxCell id="ECqiEvyCKfUZ2uqSirjC-127" style="edgeStyle=orthogonalEdgeStyle;rounded=0;orthogonalLoop=1;jettySize=auto;html=1;exitX=1;exitY=0.5;exitDx=0;exitDy=0;entryX=0;entryY=0.5;entryDx=0;entryDy=0;" edge="1" parent="1" source="ECqiEvyCKfUZ2uqSirjC-104" target="ECqiEvyCKfUZ2uqSirjC-126">
          <mxGeometry relative="1" as="geometry" />
        </mxCell>
        <mxCell id="ECqiEvyCKfUZ2uqSirjC-133" style="edgeStyle=orthogonalEdgeStyle;rounded=0;orthogonalLoop=1;jettySize=auto;html=1;exitX=1;exitY=0.5;exitDx=0;exitDy=0;entryX=0;entryY=0.5;entryDx=0;entryDy=0;" edge="1" parent="1" source="ECqiEvyCKfUZ2uqSirjC-104" target="ECqiEvyCKfUZ2uqSirjC-131">
          <mxGeometry relative="1" as="geometry" />
        </mxCell>
        <mxCell id="ECqiEvyCKfUZ2uqSirjC-137" style="edgeStyle=orthogonalEdgeStyle;rounded=0;orthogonalLoop=1;jettySize=auto;html=1;exitX=1;exitY=0.5;exitDx=0;exitDy=0;entryX=0;entryY=0.5;entryDx=0;entryDy=0;" edge="1" parent="1" source="ECqiEvyCKfUZ2uqSirjC-104" target="ECqiEvyCKfUZ2uqSirjC-135">
          <mxGeometry relative="1" as="geometry" />
        </mxCell>
        <mxCell id="ECqiEvyCKfUZ2uqSirjC-150" style="edgeStyle=orthogonalEdgeStyle;rounded=0;orthogonalLoop=1;jettySize=auto;html=1;exitX=1;exitY=0.5;exitDx=0;exitDy=0;entryX=0;entryY=0.5;entryDx=0;entryDy=0;" edge="1" parent="1" source="ECqiEvyCKfUZ2uqSirjC-104" target="ECqiEvyCKfUZ2uqSirjC-149">
          <mxGeometry relative="1" as="geometry" />
        </mxCell>
        <mxCell id="ECqiEvyCKfUZ2uqSirjC-104" value="&lt;font style=&quot;font-size: 18px;&quot;&gt;判断ch类型&lt;/font&gt;" style="shape=hexagon;perimeter=hexagonPerimeter2;whiteSpace=wrap;html=1;fixedSize=1;strokeWidth=2;rounded=1;arcSize=12;" vertex="1" parent="1">
          <mxGeometry x="520" y="843" width="170" height="60" as="geometry" />
        </mxCell>
        <mxCell id="ECqiEvyCKfUZ2uqSirjC-113" value="" style="edgeStyle=orthogonalEdgeStyle;rounded=0;orthogonalLoop=1;jettySize=auto;html=1;" edge="1" parent="1" source="ECqiEvyCKfUZ2uqSirjC-108" target="ECqiEvyCKfUZ2uqSirjC-112">
          <mxGeometry relative="1" as="geometry" />
        </mxCell>
        <mxCell id="ECqiEvyCKfUZ2uqSirjC-108" value="&lt;font style=&quot;font-size: 18px;&quot;&gt;字母&lt;/font&gt;" style="ellipse;whiteSpace=wrap;html=1;strokeWidth=2;rounded=1;arcSize=12;" vertex="1" parent="1">
          <mxGeometry x="770" y="780" width="60" height="60" as="geometry" />
        </mxCell>
        <mxCell id="ECqiEvyCKfUZ2uqSirjC-120" value="" style="edgeStyle=orthogonalEdgeStyle;rounded=0;orthogonalLoop=1;jettySize=auto;html=1;" edge="1" parent="1" source="ECqiEvyCKfUZ2uqSirjC-109" target="ECqiEvyCKfUZ2uqSirjC-119">
          <mxGeometry relative="1" as="geometry" />
        </mxCell>
        <mxCell id="ECqiEvyCKfUZ2uqSirjC-109" value="&lt;font style=&quot;font-size: 18px;&quot;&gt;是&lt;/font&gt;" style="fillColor=#FFE0B2;ellipse;whiteSpace=wrap;html=1;strokeWidth=2;rounded=1;arcSize=12;" vertex="1" parent="1">
          <mxGeometry x="1080" y="720" width="60" height="60" as="geometry" />
        </mxCell>
        <mxCell id="ECqiEvyCKfUZ2uqSirjC-118" value="" style="edgeStyle=orthogonalEdgeStyle;rounded=0;orthogonalLoop=1;jettySize=auto;html=1;" edge="1" parent="1" source="ECqiEvyCKfUZ2uqSirjC-110" target="ECqiEvyCKfUZ2uqSirjC-117">
          <mxGeometry relative="1" as="geometry" />
        </mxCell>
        <mxCell id="ECqiEvyCKfUZ2uqSirjC-110" value="&lt;font style=&quot;font-size: 18px;&quot;&gt;否&lt;/font&gt;" style="fillColor=#FFE0B2;ellipse;whiteSpace=wrap;html=1;strokeWidth=2;rounded=1;arcSize=12;" vertex="1" parent="1">
          <mxGeometry x="1080" y="840" width="60" height="60" as="geometry" />
        </mxCell>
        <mxCell id="ECqiEvyCKfUZ2uqSirjC-115" style="edgeStyle=orthogonalEdgeStyle;rounded=0;orthogonalLoop=1;jettySize=auto;html=1;" edge="1" parent="1" source="ECqiEvyCKfUZ2uqSirjC-112" target="ECqiEvyCKfUZ2uqSirjC-109">
          <mxGeometry relative="1" as="geometry" />
        </mxCell>
        <mxCell id="ECqiEvyCKfUZ2uqSirjC-116" style="edgeStyle=orthogonalEdgeStyle;rounded=0;orthogonalLoop=1;jettySize=auto;html=1;" edge="1" parent="1" source="ECqiEvyCKfUZ2uqSirjC-112" target="ECqiEvyCKfUZ2uqSirjC-110">
          <mxGeometry relative="1" as="geometry" />
        </mxCell>
        <mxCell id="ECqiEvyCKfUZ2uqSirjC-112" value="&lt;font style=&quot;font-size: 18px;&quot;&gt;读取后续&lt;/font&gt;&lt;div&gt;&lt;font size=&quot;3&quot;&gt;组成token&lt;/font&gt;&lt;/div&gt;&lt;div&gt;&lt;font size=&quot;3&quot;&gt;判断是否是关键字&lt;/font&gt;&lt;/div&gt;" style="fillColor=#C8E6C9;whiteSpace=wrap;html=1;strokeWidth=2;rounded=1;arcSize=12;" vertex="1" parent="1">
          <mxGeometry x="875" y="775" width="140" height="70" as="geometry" />
        </mxCell>
        <mxCell id="ECqiEvyCKfUZ2uqSirjC-117" value="&lt;font style=&quot;font-size: 18px;&quot;&gt;输出 ID \t 标识符&lt;/font&gt;" style="whiteSpace=wrap;html=1;strokeWidth=2;rounded=1;arcSize=12;" vertex="1" parent="1">
          <mxGeometry x="1190" y="840" width="190" height="60" as="geometry" />
        </mxCell>
        <mxCell id="ECqiEvyCKfUZ2uqSirjC-119" value="&lt;font style=&quot;font-size: 18px;&quot;&gt;输出 关键字 \t 关键字&lt;/font&gt;" style="whiteSpace=wrap;html=1;strokeWidth=2;rounded=1;arcSize=12;" vertex="1" parent="1">
          <mxGeometry x="1190" y="720" width="190" height="60" as="geometry" />
        </mxCell>
        <mxCell id="ECqiEvyCKfUZ2uqSirjC-125" value="" style="edgeStyle=orthogonalEdgeStyle;rounded=0;orthogonalLoop=1;jettySize=auto;html=1;" edge="1" parent="1" source="ECqiEvyCKfUZ2uqSirjC-121" target="ECqiEvyCKfUZ2uqSirjC-124">
          <mxGeometry relative="1" as="geometry" />
        </mxCell>
        <mxCell id="ECqiEvyCKfUZ2uqSirjC-121" value="&lt;font style=&quot;font-size: 18px;&quot;&gt;数字&lt;/font&gt;" style="ellipse;whiteSpace=wrap;html=1;strokeWidth=2;rounded=1;arcSize=12;" vertex="1" parent="1">
          <mxGeometry x="770" y="910" width="60" height="60" as="geometry" />
        </mxCell>
        <mxCell id="ECqiEvyCKfUZ2uqSirjC-124" value="&lt;font style=&quot;font-size: 18px;&quot;&gt;读取后续&lt;/font&gt;&lt;div&gt;&lt;font size=&quot;3&quot;&gt;组成token&lt;br&gt;&lt;/font&gt;&lt;div&gt;&lt;font size=&quot;3&quot;&gt;输出 NUM \t 数字&lt;/font&gt;&lt;/div&gt;&lt;/div&gt;" style="whiteSpace=wrap;html=1;strokeWidth=2;rounded=1;arcSize=12;" vertex="1" parent="1">
          <mxGeometry x="875" y="905" width="130" height="70" as="geometry" />
        </mxCell>
        <mxCell id="ECqiEvyCKfUZ2uqSirjC-129" value="" style="edgeStyle=orthogonalEdgeStyle;rounded=0;orthogonalLoop=1;jettySize=auto;html=1;" edge="1" parent="1" source="ECqiEvyCKfUZ2uqSirjC-126" target="ECqiEvyCKfUZ2uqSirjC-128">
          <mxGeometry relative="1" as="geometry" />
        </mxCell>
        <mxCell id="ECqiEvyCKfUZ2uqSirjC-126" value="&lt;font style=&quot;font-size: 18px;&quot;&gt;单字符&lt;/font&gt;" style="ellipse;whiteSpace=wrap;html=1;strokeWidth=2;rounded=1;arcSize=12;" vertex="1" parent="1">
          <mxGeometry x="770" y="1040" width="60" height="60" as="geometry" />
        </mxCell>
        <mxCell id="ECqiEvyCKfUZ2uqSirjC-128" value="&lt;font style=&quot;font-size: 18px;&quot;&gt;直接组成token&lt;/font&gt;&lt;div&gt;&lt;font size=&quot;3&quot;&gt;输出 运算符 \t 运算符&lt;/font&gt;&lt;/div&gt;" style="whiteSpace=wrap;html=1;strokeWidth=2;rounded=1;arcSize=12;" vertex="1" parent="1">
          <mxGeometry x="870" y="1040" width="130" height="60" as="geometry" />
        </mxCell>
        <mxCell id="ECqiEvyCKfUZ2uqSirjC-130" value="" style="edgeStyle=orthogonalEdgeStyle;rounded=0;orthogonalLoop=1;jettySize=auto;html=1;" edge="1" parent="1" source="ECqiEvyCKfUZ2uqSirjC-131" target="ECqiEvyCKfUZ2uqSirjC-132">
          <mxGeometry relative="1" as="geometry" />
        </mxCell>
        <mxCell id="ECqiEvyCKfUZ2uqSirjC-131" value="&lt;font style=&quot;font-size: 18px;&quot;&gt;双字符&lt;/font&gt;" style="ellipse;whiteSpace=wrap;html=1;strokeWidth=2;rounded=1;arcSize=12;" vertex="1" parent="1">
          <mxGeometry x="770" y="1150" width="60" height="60" as="geometry" />
        </mxCell>
        <mxCell id="ECqiEvyCKfUZ2uqSirjC-132" value="&lt;font style=&quot;font-size: 18px;&quot;&gt;读取下一个字符&lt;/font&gt;&lt;div&gt;&lt;font size=&quot;3&quot;&gt;组成token&lt;/font&gt;&lt;div&gt;&lt;font size=&quot;3&quot;&gt;输出 运算符 \t 运算符&lt;/font&gt;&lt;/div&gt;&lt;/div&gt;" style="whiteSpace=wrap;html=1;strokeWidth=2;rounded=1;arcSize=12;" vertex="1" parent="1">
          <mxGeometry x="870" y="1140" width="170" height="80" as="geometry" />
        </mxCell>
        <mxCell id="ECqiEvyCKfUZ2uqSirjC-134" value="" style="edgeStyle=orthogonalEdgeStyle;rounded=0;orthogonalLoop=1;jettySize=auto;html=1;" edge="1" parent="1" source="ECqiEvyCKfUZ2uqSirjC-135" target="ECqiEvyCKfUZ2uqSirjC-136">
          <mxGeometry relative="1" as="geometry" />
        </mxCell>
        <mxCell id="ECqiEvyCKfUZ2uqSirjC-135" value="&lt;font style=&quot;font-size: 36px;&quot;&gt;/&lt;/font&gt;" style="ellipse;whiteSpace=wrap;html=1;strokeWidth=2;rounded=1;arcSize=12;" vertex="1" parent="1">
          <mxGeometry x="770" y="1250" width="60" height="60" as="geometry" />
        </mxCell>
        <mxCell id="ECqiEvyCKfUZ2uqSirjC-141" style="edgeStyle=orthogonalEdgeStyle;rounded=0;orthogonalLoop=1;jettySize=auto;html=1;exitX=1;exitY=0.5;exitDx=0;exitDy=0;entryX=0;entryY=0.5;entryDx=0;entryDy=0;" edge="1" parent="1" source="ECqiEvyCKfUZ2uqSirjC-136" target="ECqiEvyCKfUZ2uqSirjC-140">
          <mxGeometry relative="1" as="geometry" />
        </mxCell>
        <mxCell id="ECqiEvyCKfUZ2uqSirjC-148" style="edgeStyle=orthogonalEdgeStyle;rounded=0;orthogonalLoop=1;jettySize=auto;html=1;exitX=1;exitY=0.5;exitDx=0;exitDy=0;entryX=0;entryY=0.5;entryDx=0;entryDy=0;" edge="1" parent="1" source="ECqiEvyCKfUZ2uqSirjC-136" target="ECqiEvyCKfUZ2uqSirjC-146">
          <mxGeometry relative="1" as="geometry" />
        </mxCell>
        <mxCell id="ECqiEvyCKfUZ2uqSirjC-136" value="&lt;font style=&quot;font-size: 18px;&quot;&gt;读取下一个字符&lt;/font&gt;" style="whiteSpace=wrap;html=1;strokeWidth=2;rounded=1;arcSize=12;" vertex="1" parent="1">
          <mxGeometry x="880" y="1250" width="130" height="60" as="geometry" />
        </mxCell>
        <mxCell id="ECqiEvyCKfUZ2uqSirjC-143" value="" style="edgeStyle=orthogonalEdgeStyle;rounded=0;orthogonalLoop=1;jettySize=auto;html=1;" edge="1" parent="1" source="ECqiEvyCKfUZ2uqSirjC-140" target="ECqiEvyCKfUZ2uqSirjC-142">
          <mxGeometry relative="1" as="geometry" />
        </mxCell>
        <mxCell id="ECqiEvyCKfUZ2uqSirjC-140" value="&lt;font style=&quot;font-size: 36px;&quot;&gt;*&lt;/font&gt;" style="ellipse;whiteSpace=wrap;html=1;strokeWidth=2;rounded=1;arcSize=12;align=center;" vertex="1" parent="1">
          <mxGeometry x="1080" y="1210" width="60" height="60" as="geometry" />
        </mxCell>
        <mxCell id="ECqiEvyCKfUZ2uqSirjC-142" value="&lt;font style=&quot;font-size: 18px;&quot;&gt;注释处理&lt;/font&gt;&lt;div&gt;&lt;font size=&quot;3&quot;&gt;&lt;font style=&quot;&quot;&gt;*/&lt;/font&gt;结束&lt;/font&gt;&lt;/div&gt;" style="whiteSpace=wrap;html=1;strokeWidth=2;rounded=1;arcSize=12;" vertex="1" parent="1">
          <mxGeometry x="1190" y="1210" width="120" height="60" as="geometry" />
        </mxCell>
        <mxCell id="ECqiEvyCKfUZ2uqSirjC-146" value="&lt;font style=&quot;font-size: 18px;&quot;&gt;输出单分界符&lt;/font&gt;" style="whiteSpace=wrap;html=1;strokeWidth=2;rounded=1;arcSize=12;" vertex="1" parent="1">
          <mxGeometry x="1080" y="1340" width="120" height="60" as="geometry" />
        </mxCell>
        <mxCell id="ECqiEvyCKfUZ2uqSirjC-152" value="" style="edgeStyle=orthogonalEdgeStyle;rounded=0;orthogonalLoop=1;jettySize=auto;html=1;" edge="1" parent="1" source="ECqiEvyCKfUZ2uqSirjC-149" target="ECqiEvyCKfUZ2uqSirjC-151">
          <mxGeometry relative="1" as="geometry" />
        </mxCell>
        <mxCell id="ECqiEvyCKfUZ2uqSirjC-149" value="&lt;font style=&quot;font-size: 18px;&quot;&gt;其他&lt;/font&gt;" style="ellipse;whiteSpace=wrap;html=1;strokeWidth=2;rounded=1;arcSize=12;" vertex="1" parent="1">
          <mxGeometry x="770" y="1360" width="60" height="60" as="geometry" />
        </mxCell>
        <mxCell id="ECqiEvyCKfUZ2uqSirjC-151" value="&lt;font style=&quot;font-size: 18px;&quot;&gt;错误处理&lt;/font&gt;" style="whiteSpace=wrap;html=1;strokeWidth=2;rounded=1;arcSize=12;" vertex="1" parent="1">
          <mxGeometry x="880" y="1360" width="120" height="60" as="geometry" />
        </mxCell>
        <mxCell id="ECqiEvyCKfUZ2uqSirjC-154" value="" style="endArrow=none;dashed=1;html=1;dashPattern=1 3;strokeWidth=2;rounded=0;exitX=1;exitY=0.5;exitDx=0;exitDy=0;exitPerimeter=0;entryX=0;entryY=0.5;entryDx=0;entryDy=0;" edge="1" parent="1" source="ECqiEvyCKfUZ2uqSirjC-88" target="ECqiEvyCKfUZ2uqSirjC-94">
          <mxGeometry width="50" height="50" relative="1" as="geometry">
            <mxPoint x="400" y="720" as="sourcePoint" />
            <mxPoint x="450" y="670" as="targetPoint" />
          </mxGeometry>
        </mxCell>
        <mxCell id="ECqiEvyCKfUZ2uqSirjC-155" value="" style="endArrow=none;dashed=1;html=1;dashPattern=1 3;strokeWidth=2;rounded=0;entryX=0;entryY=0.5;entryDx=0;entryDy=0;exitX=1;exitY=0.5;exitDx=0;exitDy=0;" edge="1" parent="1" source="ECqiEvyCKfUZ2uqSirjC-61" target="ECqiEvyCKfUZ2uqSirjC-63">
          <mxGeometry width="50" height="50" relative="1" as="geometry">
            <mxPoint x="370" y="680" as="sourcePoint" />
            <mxPoint x="420" y="630" as="targetPoint" />
          </mxGeometry>
        </mxCell>
        <mxCell id="ECqiEvyCKfUZ2uqSirjC-159" value="" style="edgeStyle=orthogonalEdgeStyle;rounded=0;orthogonalLoop=1;jettySize=auto;html=1;" edge="1" parent="1" source="ECqiEvyCKfUZ2uqSirjC-156" target="ECqiEvyCKfUZ2uqSirjC-158">
          <mxGeometry relative="1" as="geometry" />
        </mxCell>
        <mxCell id="ECqiEvyCKfUZ2uqSirjC-156" value="&lt;font style=&quot;font-size: 18px;&quot;&gt;关闭文件&lt;/font&gt;" style="fillColor=#FFCDD2;rounded=1;whiteSpace=wrap;html=1;strokeWidth=2;gradientColor=none;gradientDirection=north;fontStyle=0;" vertex="1" parent="1">
          <mxGeometry x="260" y="685" width="120" height="60" as="geometry" />
        </mxCell>
        <mxCell id="ECqiEvyCKfUZ2uqSirjC-158" value="&lt;font style=&quot;font-size: 18px;&quot;&gt;返回错误状态码&lt;/font&gt;" style="fillColor=#FFCDD2;whiteSpace=wrap;html=1;rounded=1;strokeWidth=2;gradientColor=none;gradientDirection=north;fontStyle=0;" vertex="1" parent="1">
          <mxGeometry x="220" y="825" width="200" height="60" as="geometry" />
        </mxCell>
      </root>
    </mxGraphModel>
  </diagram>
</mxfile>
